<svg xmlns="http://www.w3.org/2000/svg" viewBox="0 0 200 200" overflow="visible">
	<path fill="#42A5F5" d="M100 200c55.2 0 100-44.8 100-100S155.2 0 100 0 0 44.8 0 100s44.8 100 100 100z"/><path fill="#FFF" d="M86.4 63.4c2.4 0 4.3 2 4.3 4.3s-2 4.3-4.3 4.3-4.3-2-4.3-4.3 2-4.3 5-4.3zm27.2 0c2.3 0 4.3 2 4.3 4.3s-2 4.3-5 4.3c-2.8 0-4.7-2-4.7-4.3s2-4.3 4.3-4.3zm-51-15V89h32.8v3.3h-33v59.3h19.3L96.2 137l-8.3-8.3 8-8.4-3-2.3-10 10 4.5 4.7-9.7 10h-7v-42h58v42h-7L112 133l4.7-4.7-11-10.8-2.3 2 8.3 8.3-8 8.5 15 14.7h19V92h-33v-3h33V48.3H63zm66.3 32H71v-24h58v24zm-36 48.3l7-7 7 7-7 7-7-7z"/>
</svg>
